<svg width="22" height="24" viewBox="0 0 22 24" fill="none" xmlns="http://www.w3.org/2000/svg">
<g clip-path="url(#clip0_0_972)">
<path d="M11.0049 6.60952C7.88171 6.60952 5.36252 9.01421 5.36252 11.9955C5.36252 14.9767 7.88171 17.3814 11.0049 17.3814C14.1281 17.3814 16.6473 14.9767 16.6473 11.9955C16.6473 9.01421 14.1281 6.60952 11.0049 6.60952ZM11.0049 15.497C8.98662 15.497 7.33662 13.9267 7.33662 11.9955C7.33662 10.0642 8.98171 8.4939 11.0049 8.4939C13.0281 8.4939 14.6732 10.0642 14.6732 11.9955C14.6732 13.9267 13.0232 15.497 11.0049 15.497ZM18.1942 6.38921C18.1942 7.08765 17.6049 7.64546 16.8781 7.64546C16.1464 7.64546 15.5621 7.08296 15.5621 6.38921C15.5621 5.69546 16.1513 5.13296 16.8781 5.13296C17.6049 5.13296 18.1942 5.69546 18.1942 6.38921ZM21.9313 7.66421C21.8478 5.9814 21.4451 4.49077 20.1536 3.26265C18.867 2.03452 17.3054 1.65015 15.5424 1.56577C13.7255 1.46733 8.27948 1.46733 6.46252 1.56577C4.70448 1.64546 3.14288 2.02983 1.85136 3.25796C0.559842 4.48608 0.162074 5.97671 0.0736816 7.65952C-0.0294433 9.3939 -0.0294433 14.5923 0.0736816 16.3267C0.157164 18.0095 0.559842 19.5001 1.85136 20.7283C3.14288 21.9564 4.69957 22.3408 6.46252 22.4251C8.27948 22.5236 13.7255 22.5236 15.5424 22.4251C17.3054 22.3455 18.867 21.9611 20.1536 20.7283C21.4402 19.5001 21.8429 18.0095 21.9313 16.3267C22.0344 14.5923 22.0344 9.39858 21.9313 7.66421ZM19.5839 18.1876C19.2009 19.1064 18.4594 19.8142 17.492 20.1845C16.0433 20.733 12.6058 20.6064 11.0049 20.6064C9.40403 20.6064 5.96162 20.7283 4.51787 20.1845C3.55538 19.8189 2.81386 19.1111 2.42591 18.1876C1.85136 16.8048 1.98395 13.5236 1.98395 11.9955C1.98395 10.4673 1.85627 7.1814 2.42591 5.80327C2.80895 4.88452 3.55046 4.17671 4.51787 3.8064C5.96653 3.25796 9.40403 3.38452 11.0049 3.38452C12.6058 3.38452 16.0482 3.26265 17.492 3.8064C18.4545 4.17202 19.196 4.87983 19.5839 5.80327C20.1585 7.18608 20.0259 10.4673 20.0259 11.9955C20.0259 13.5236 20.1585 16.8095 19.5839 18.1876Z" fill="white"/>
</g>
<defs>
<clipPath id="clip0_0_972">
<rect width="22" height="24" fill="white"/>
</clipPath>
</defs>
</svg>
